<mxfile host="app.diagrams.net" modified="2021-03-10T12:41:06.548Z" agent="5.0 (Macintosh; Intel Mac OS X 10_15_5) AppleWebKit/537.36 (KHTML, like Gecko) Chrome/89.0.4389.82 Safari/537.36" etag="jC8r58It1bVPsaVVfIl0" version="14.4.6" type="github">
  <diagram id="ZKt2P-NDflX3lZGOU_ON" name="Page-1">
    <mxGraphModel dx="1186" dy="659" grid="1" gridSize="10" guides="1" tooltips="1" connect="1" arrows="1" fold="1" page="1" pageScale="1" pageWidth="827" pageHeight="1169" math="0" shadow="0">
      <root>
        <mxCell id="0" />
        <mxCell id="1" parent="0" />
      </root>
    </mxGraphModel>
  </diagram>
</mxfile>
